<?xml version="1.0" encoding="UTF-8"?>
<svg width="37px" height="42px" viewBox="0 0 37 42" version="1.1" xmlns="http://www.w3.org/2000/svg" xmlns:xlink="http://www.w3.org/1999/xlink">
    <!-- Generator: Sketch 60.1 (88133) - https://sketch.com -->
    <title>编组 29</title>
    <desc>Created with Sketch.</desc>
    <g id="页面-1" stroke="none" stroke-width="1" fill="none" fill-rule="evenodd">
        <g id="数码容器服务登录后" transform="translate(-785.000000, -923.000000)">
            <g id="编组-26" transform="translate(254.000000, 919.000000)">
                <g id="编组-29" transform="translate(525.000000, 0.000000)">
                    <g id="编组-22" transform="translate(7.000000, 5.000000)" fill-rule="nonzero">
                        <g id="编组-17" transform="translate(0.000000, 0.000000)">
                            <path d="M17.7778398,28.8888889 C15.9799162,28.8888889 14.3590985,27.8056443 13.6714132,26.1444337 C12.9837279,24.4832231 13.3646568,22.5713228 14.6365164,21.3005341 C15.9083759,20.0297455 17.8205958,19.6504279 19.4812255,20.3395134 C21.1418551,21.0285988 22.2237321,22.6503297 22.2222191,24.4482534 C22.2201508,26.9013542 20.2309403,28.8888889 17.7778398,28.8888889 L17.7778398,28.8888889 Z M17.7778398,22.2504009 C16.5639999,22.2504009 15.5799883,23.234413 15.5799883,24.4482534 C15.5799883,25.6620938 16.5639999,26.6461059 17.7778398,26.6461059 C18.9916796,26.6461059 19.9756913,25.6620938 19.9756913,24.4482534 C19.9756913,23.234413 18.9916796,22.2504009 17.7778398,22.2504009 L17.7778398,22.2504009 Z" id="形状" fill="#0074FF" opacity="0.6"></path>
                            <path d="M33.7204682,40 L1.09434665,40 C0.804107874,40 0.525756521,39.8834065 0.320526713,39.6758686 C0.115296905,39.4683308 -1.3500312e-13,39.1868491 -1.3500312e-13,38.8933462 L-1.3500312e-13,14.4399871 C-1.3500312e-13,14.1464843 0.115296905,13.8650026 0.320526713,13.6574647 C0.525756521,13.4499269 0.804107874,13.3333333 1.09434665,13.3333333 L33.7204682,13.3333333 C34.3248591,13.3333333 34.8148148,13.8287991 34.8148148,14.4399871 L34.8148148,38.8933462 C34.8148148,39.5045342 34.3248591,40 33.7204682,40 L33.7204682,40 Z M2.19963677,37.7866925 L32.6261215,37.7866925 L32.6261215,15.5466408 L2.1886933,15.5466408 L2.19963677,37.7866925 Z" id="形状" stroke="#B9B9BB" stroke-width="0.6" fill="#B9B9BB"></path>
                            <path d="M26.3082783,15.7393266 C25.7022604,15.7393266 25.2109858,15.2357827 25.2109858,14.6146298 L25.2109858,10.4457537 C25.2722199,7.54689602 23.798404,4.84097313 21.3587861,3.37312289 C18.9191682,1.90527265 15.8956466,1.90527265 13.4560287,3.37312289 C11.0164108,4.84097313 9.54259494,7.54689602 9.60382899,10.4457537 L9.60382899,14.6146298 C9.60382895,15.2357826 9.11255438,15.7393266 8.5065365,15.7393266 C7.90051861,15.7393266 7.40924404,15.2357826 7.40924401,14.6146298 L7.40924401,10.4457537 C7.34004836,6.73782402 9.23040899,3.28079728 12.3523034,1.40605598 C15.4741979,-0.468685326 19.3406169,-0.468685326 22.4625114,1.40605598 C25.5844058,3.28079728 27.4747665,6.73782402 27.4055708,10.4457537 L27.4055708,14.6146298 C27.4055708,15.2357827 26.9142962,15.7393266 26.3082783,15.7393266 L26.3082783,15.7393266 Z" id="路径" stroke="#B9B9BB" stroke-width="0.3" fill="#B9B9BB"></path>
                            <path d="M17.4055786,33.3333333 C17.1145585,33.3333333 16.8354579,33.2148388 16.6296756,33.0039173 C16.4238934,32.7929957 16.3082861,32.5069247 16.3082861,32.2086365 L16.3082861,28.4971371 C16.3082861,27.8759843 16.7995607,27.3724404 17.4055786,27.3724404 C18.0115965,27.3724404 18.5028711,27.8759843 18.5028711,28.4971371 L18.5028711,32.2086365 C18.5028711,32.8297894 18.0115965,33.3333333 17.4055786,33.3333333 L17.4055786,33.3333333 Z" id="路径" fill="#0074FF" opacity="0.6"></path>
                        </g>
                    </g>
                    <rect id="矩形" x="0" y="0" width="50" height="50"></rect>
                </g>
            </g>
        </g>
    </g>
</svg>