<?xml version="1.0" encoding="UTF-8"?>
<svg width="38px" height="41px" viewBox="0 0 38 41" version="1.1" xmlns="http://www.w3.org/2000/svg" xmlns:xlink="http://www.w3.org/1999/xlink">
    <!-- Generator: Sketch 60.1 (88133) - https://sketch.com -->
    <title>编组 34</title>
    <desc>Created with Sketch.</desc>
    <g id="页面-1" stroke="none" stroke-width="1" fill="none" fill-rule="evenodd">
        <g id="数码容器服务登录后" transform="translate(-1308.000000, -1255.000000)">
            <g id="编组-26" transform="translate(254.000000, 919.000000)">
                <g id="专业高效" transform="translate(3.000000, 331.000000)">
                    <g id="编组-33" transform="translate(529.000000, 0.000000)">
                        <g id="编组-34" transform="translate(516.000000, 0.000000)">
                            <rect id="矩形备份-5" fill="#000000" fill-rule="nonzero" opacity="0" x="0" y="0" width="50" height="50"></rect>
                            <g id="158成本分析-2" transform="translate(5.000000, 4.000000)" fill-rule="nonzero">
                                <g id="158成本分析">
                                    <rect id="矩形" fill="#000000" opacity="0" x="0" y="0" width="16" height="16"></rect>
                                    <g id="编组-24" transform="translate(2.023438, 1.578125)" fill="#B9B9BB">
                                        <path d="M19.1971154,36.7307692 L3.13942308,36.7307692 C2.68269231,36.7307692 2.30769231,36.3173077 2.30769231,35.8076923 L2.30769231,3.23076923 C2.30769231,2.72115385 2.68269231,2.30769231 3.13942308,2.30769231 L31.1586538,2.30769231 C31.6153846,2.30769231 31.9903846,2.72115385 31.9903846,3.23076923 L31.9903846,22.9711538 C31.9903846,23.6105769 32.5048077,24.125 33.1442308,24.125 C33.7836538,24.125 34.2980769,23.6105769 34.2980769,22.9711538 L34.2980769,3.23076923 C34.2980769,1.44711538 32.8894231,0 31.1586538,0 L3.13942308,0 C1.40865385,0 -7.26529947e-13,1.45192308 -7.26529947e-13,3.23076923 L-7.26529947e-13,35.8076923 C-7.26529947e-13,37.5913462 1.40865385,39.0384615 3.13942308,39.0384615 L19.1971154,39.0384615 C19.8365385,39.0384615 20.3509615,38.5240385 20.3509615,37.8846154 C20.3509615,37.2451923 19.8365385,36.7307692 19.1971154,36.7307692 Z" id="路径" stroke="#B9B9BB" stroke-width="0.8"></path>
                                        <path d="M36.2980769,37.6009615 L33.4759615,35.2548077 C34.0096154,34.2884615 34.2932692,33.1923077 34.2932692,32.0769231 C34.2932692,28.4471154 31.3413462,25.4903846 27.7067308,25.4903846 C24.0721154,25.4903846 21.1201923,28.4423077 21.1201923,32.0769231 C21.1201923,35.7115385 24.0721154,38.6634615 27.7067308,38.6634615 C29.3076923,38.6634615 30.8317308,38.0865385 32.0192308,37.0528846 L34.8173077,39.3798077 C35.0336538,39.5576923 35.2932692,39.6442308 35.5528846,39.6442308 C35.8846154,39.6442308 36.2115385,39.5 36.4423077,39.2259615 C36.8557692,38.7403846 36.7884615,38.0096154 36.2980769,37.6009615 Z M27.7115385,36.3557692 C25.3557692,36.3557692 23.4326923,34.4375 23.4326923,32.0769231 C23.4326923,29.7211538 25.3509615,27.7980769 27.7115385,27.7980769 C30.0673077,27.7980769 31.9903846,29.7163462 31.9903846,32.0769231 C31.9903846,33.0865385 31.6346154,34.0625 30.9855769,34.8317308 C30.1682692,35.8028846 28.9759615,36.3557692 27.7115385,36.3557692 Z" id="形状"></path>
                                    </g>
                                </g>
                            </g>
                            <path d="M24.5023371,37 C25.1240033,37 25.6241408,36.4742587 25.6241408,35.8207672 L25.6241408,29.1924963 L31.8781963,29.1924963 C32.4998625,29.1924963 33,28.666755 33,28.0132635 C33,27.359772 32.4998625,26.8340307 31.8781963,26.8340307 L25.6241408,26.8340307 L25.6241408,22.7558507 L30.6255155,22.7558507 C31.2471817,22.7558507 31.7473192,22.2301094 31.7473192,21.5766179 C31.7473192,20.9231264 31.2471817,20.3973851 30.6255155,20.3973851 L26.6992026,20.3973851 L31.279901,15.6853674 C31.6491614,15.3070302 31.6538356,14.6830196 31.2939236,14.2948554 C30.9340115,13.9066913 30.3403904,13.9017778 29.9711301,14.280115 L24.5163596,19.8912977 L19.0615892,14.280115 C18.6923288,13.9017778 18.0987077,13.9066913 17.7387957,14.2948554 C17.3788837,14.6830196 17.3835579,15.3070302 17.7528183,15.6853674 L22.3335166,20.3973851 L18.3744845,20.3973851 C17.7528183,20.3973851 17.2526808,20.9231264 17.2526808,21.5766179 C17.2526808,22.2301094 17.7528183,22.7558507 18.3744845,22.7558507 L23.3758592,22.7558507 L23.3758592,26.8340307 L17.1218037,26.8340307 C16.5001375,26.8340307 16,27.359772 16,28.0132635 C16,28.666755 16.5001375,29.1924963 17.1218037,29.1924963 L23.3758592,29.1924963 L23.3758592,35.8158537 C23.3805334,36.4693452 23.8806709,37 24.5023371,37 Z" id="路径" fill="#62A9FD"></path>
                        </g>
                    </g>
                </g>
            </g>
        </g>
    </g>
</svg>