<?xml version="1.0" encoding="UTF-8"?>
<svg width="51px" height="53px" viewBox="0 0 51 53" version="1.1" xmlns="http://www.w3.org/2000/svg" xmlns:xlink="http://www.w3.org/1999/xlink">
    <!-- Generator: Sketch 60.1 (88133) - https://sketch.com -->
    <title>编组 11</title>
    <desc>Created with Sketch.</desc>
    <g id="页面-1" stroke="none" stroke-width="1" fill="none" fill-rule="evenodd">
        <g id="数码容器服务登录后" transform="translate(-1548.000000, -3043.000000)" fill-rule="nonzero">
            <g id="编组-11" transform="translate(1533.000000, 3029.000000)">
                <g id="编组-15" transform="translate(15.000000, 14.000000)">
                    <path d="M47.6999972,2.13162821e-14 C49.4999732,2.13162821e-14 50.9823312,1.482358 50.9823312,3.28233401 L50.9823312,49.6587822 C50.9823312,51.4588185 49.5000335,52.9411765 47.6999972,52.9411765 L3.28233407,52.9411765 C1.48235806,52.9411765 2.73558953e-13,51.4588185 2.73558953e-13,49.6588425 L2.73558953e-13,3.28233401 C2.73558953e-13,1.482358 1.482358,2.13162821e-14 3.28233401,2.13162821e-14 L47.6999972,2.13162821e-14 Z M47.6999972,2.80584672 L3.28233407,2.80584672 L3.28233407,2.80584672 C3.01761225,2.80584672 2.80584678,3.01761213 2.80584678,3.28233401 L2.80584678,49.6587822 C2.80584678,49.9235041 3.01761219,50.1352695 3.28233407,50.1352695 L47.6999973,50.1352695 C47.9647191,50.1352695 48.1764846,49.9235041 48.1764846,49.6587822 L48.1764846,3.28233401 C48.1764846,3.01761219 47.9647191,2.80584672 47.6999972,2.80584672 Z" id="形状结合" fill-opacity="0.25" fill="#000000"></path>
                    <path d="M16.8882779,7.62349514 C18.0000013,7.62349514 18.9000194,8.52345303 18.9000194,9.63523662 L18.9000194,9.63523662 L18.9000194,22.3411623 C20.9117608,23.1352676 22.2882663,25.0941129 22.2882663,27.3705762 L22.2882663,27.3705762 L22.2882663,32.3999901 C22.2882663,34.6764534 20.9117609,36.6352987 18.9000194,37.429404 L18.9000194,37.429404 L18.9000194,43.2529232 C18.9000194,44.3646466 18.0000013,45.2646647 16.8882779,45.2646647 C15.7765546,45.2646647 14.8765364,44.3647068 14.8765364,43.2529232 L14.8765364,43.2529232 L14.8765364,37.3764476 C12.9176911,36.5823423 11.4882895,34.6234951 11.4882895,32.3470337 L11.4882895,32.3470337 L11.4882895,27.3176198 C11.4882895,25.0411565 12.864795,23.0823112 14.8765364,22.2882059 L14.8765364,22.2882059 L14.8765364,9.63523662 C14.8765364,8.52351326 15.7764943,7.62349514 16.8882779,7.62349514 Z M16.8882176,24.7764346 C15.4587557,24.7764346 14.294076,25.9411746 14.294076,27.3705762 L14.294076,27.3705762 L14.294076,32.3999901 C14.294076,33.829452 15.4587557,34.9941317 16.8882176,34.9941317 C18.3176795,34.9941317 19.4823592,33.8293917 19.4823592,32.3999901 L19.4823592,32.3999901 L19.4823592,27.3705762 C19.4823592,25.9411144 18.3176795,24.7764346 16.8882176,24.7764346 Z" id="形状结合" fill="#7B7B7C"></path>
                    <path d="M34.0941738,7.67645155 C35.2058972,7.67645155 36.1059153,8.57640944 36.1059153,9.68819303 L36.1059153,9.68819303 L36.1059153,13.7646926 C38.1176567,14.5587979 39.5470583,16.5175829 39.4941622,18.7941065 L39.4941622,18.7941065 L39.4941622,23.8235203 C39.4941622,26.0999836 38.1176568,28.0588289 36.1059153,28.8529342 L36.1059153,28.8529342 L36.1059153,43.3058796 C36.1059153,44.417603 35.2059574,45.3176211 34.0941738,45.3176211 C32.9824505,45.3176211 32.0824324,44.4176632 32.0824324,43.3058796 L32.0824324,43.3058796 L32.0824324,28.8529343 C30.1235871,28.058829 28.6941855,26.0999837 28.6941855,23.8235204 L28.6941855,23.8235204 L28.6941855,18.7941065 C28.6941855,16.5176432 30.0706909,14.5587979 32.0824324,13.7646926 L32.0824324,13.7646926 L32.0824324,9.68819303 C32.0824324,8.57646967 32.9823902,7.67645155 34.0941738,7.67645155 Z M34.0941738,16.1470687 C33.3000685,16.1470687 32.5589196,16.5705996 32.0824324,17.1529395 C31.7118579,17.6294267 31.5000925,18.1588102 31.5000925,18.7941065 L31.5000925,18.7941065 L31.5000925,23.8235203 C31.5000925,24.4588166 31.7118579,25.0411565 32.0824324,25.4646874 C32.5588594,26.0999836 33.2471121,26.4705581 34.0941738,26.4705581 C34.8882791,26.4705581 35.629428,26.0470272 36.1059153,25.4646874 C36.4764898,24.9882001 36.6882552,24.4588166 36.6882552,23.8235203 L36.6882552,23.8235203 L36.6882552,18.7941065 C36.6882552,18.1588102 36.4764897,17.5764703 36.1059153,17.1529395 C35.6294882,16.5176432 34.9412355,16.1470687 34.0941738,16.1470687 Z" id="形状结合" fill="#7B7B7C"></path>
                </g>
                <rect id="矩形" fill="#000000" opacity="0" x="0" y="0" width="80" height="80"></rect>
            </g>
        </g>
    </g>
</svg>