<?xml version="1.0" encoding="UTF-8"?>
<svg width="41px" height="41px" viewBox="0 0 41 41" version="1.1" xmlns="http://www.w3.org/2000/svg" xmlns:xlink="http://www.w3.org/1999/xlink">
    <!-- Generator: Sketch 60.1 (88133) - https://sketch.com -->
    <title>编组 32</title>
    <desc>Created with Sketch.</desc>
    <g id="页面-1" stroke="none" stroke-width="1" fill="none" fill-rule="evenodd">
        <g id="数码容器服务登录后" transform="translate(-261.000000, -1255.000000)" fill-rule="nonzero">
            <g id="编组-26" transform="translate(254.000000, 919.000000)">
                <g id="专业高效" transform="translate(3.000000, 331.000000)">
                    <g id="编组-32">
                        <rect id="矩形" fill="#000000" opacity="0" x="0" y="0" width="50" height="50"></rect>
                        <g id="编组-23" transform="translate(5.000000, 5.000000)">
                            <path d="M31.625,0 L33.25,6.625 L40,8.375 L32.5,15.875 L25.375,15.875 L18.625,22.5 L17.5,21.375 L24.125,14.75 L24.125,7.5 L31.625,0 Z M30.75,3.375 L25.75,7.5 L25.75,14.125 L30.75,14.125 L36.625,9.125 L31.625,8.375 L30.75,3.375 Z" id="形状结合" fill="#62A9FD"></path>
                            <path d="M18.375,25 C19.875,25 21.125,24 21.5,22.625 L23.25,20.875 C23.25,21.125 23.375,21.375 23.375,21.625 C23.375,24.375 21.125,26.625 18.375,26.625 C15.625,26.625 13.375,24.375 13.375,21.625 C13.375,18.875 15.625,16.625 18.375,16.625 C18.625,16.625 18.875,16.625 19.125,16.75 L17.375,18.5 C16,18.875 15,20.125 15,21.625 C15,23.5 16.5,25 18.375,25 L18.375,25 Z" id="路径" fill="#B9B9BB"></path>
                            <path d="M9.875,21.875 C9.875,26.375 13.5,30.125 18.125,30.125 C22.625,30.125 26.375,26.5 26.375,21.875 C26.375,20.75 26.125,19.625 25.625,18.625 L27.375,18.625 C27.75,19.625 28,20.75 28,21.875 C28,27.375 23.625,31.75 18.125,31.75 C12.625,31.75 8.25,27.375 8.25,21.875 C8.25,16.375 12.625,12 18.125,12 C19.25,12 20.375,12.25 21.375,12.625 L21.375,14.375 C20.375,13.875 19.25,13.625 18.125,13.625 C13.625,13.625 9.875,17.375 9.875,21.875 Z" id="路径" stroke="#B9B9BB" stroke-width="0.2" fill="#B9B9BB"></path>
                            <path d="M1.625,21.875 C1.625,31 9,38.375 18.125,38.375 C27.25,38.375 34.625,31 34.625,21.875 C34.625,20.75 34.5,19.625 34.25,18.625 L35.875,18.625 C36.125,19.75 36.25,20.75 36.25,21.875 C36.25,31.875 28.125,40 18.125,40 C8.125,40 -3.55271368e-15,31.875 -3.55271368e-15,21.875 C-3.55271368e-15,11.875 8.125,3.75 18.125,3.75 C19.25,3.75 20.375,3.875 21.375,4.125 L21.375,5.75 C20.25,5.5 19.25,5.375 18.125,5.375 C9,5.375 1.625,12.75 1.625,21.875 Z" id="路径" stroke="#B9B9BB" stroke-width="1.2" fill="#B9B9BB"></path>
                        </g>
                    </g>
                </g>
            </g>
        </g>
    </g>
</svg>