<?xml version="1.0" encoding="UTF-8"?>
<svg width="40px" height="40px" viewBox="0 0 40 40" version="1.1" xmlns="http://www.w3.org/2000/svg" xmlns:xlink="http://www.w3.org/1999/xlink">
    <!-- Generator: Sketch 60.1 (88133) - https://sketch.com -->
    <title>编组 31</title>
    <desc>Created with Sketch.</desc>
    <g id="页面-1" stroke="none" stroke-width="1" fill="none" fill-rule="evenodd">
        <g id="数码容器服务登录后" transform="translate(-1306.000000, -924.000000)">
            <g id="编组-26" transform="translate(254.000000, 919.000000)">
                <g id="编组-31" transform="translate(1047.000000, 0.000000)">
                    <g id="租房小程序线性图标" transform="translate(4.000000, 4.000000)" fill-rule="nonzero">
                        <rect id="矩形" fill="#000000" opacity="0" x="0" y="0" width="16" height="16"></rect>
                        <g id="编组-25" transform="translate(1.110016, 1.110000)">
                            <path d="M16.5597768,39.0036607 L4.05625,39.0036607 C1.81959821,39.0036607 3.01980663e-14,37.1840179 3.01980663e-14,34.9474107 L3.01980663e-14,4.05629464 C3.01980663e-14,1.81959821 1.81964286,-1.0658141e-14 4.05625,-1.0658141e-14 L27.5923214,-1.0658141e-14 C29.8290179,-1.0658141e-14 31.6486161,1.81964286 31.6486161,4.05629464 L31.6486161,7.73379464 C31.6486161,8.34919643 31.1497321,8.84808036 30.5343304,8.84808036 C29.9189286,8.84808036 29.4200446,8.34919643 29.4200446,7.73379464 L29.4200446,4.05629464 C29.4200446,3.04848214 28.6001339,2.22857143 27.5923214,2.22857143 L4.05625,2.22857143 C3.04848214,2.22857143 2.22857143,3.04848214 2.22857143,4.05629464 L2.22857143,34.9474107 C2.22857143,35.9551786 3.04848214,36.7750893 4.05625,36.7750893 L16.5597768,36.7750893 C17.1751786,36.7750893 17.6740625,37.2739732 17.6740625,37.889375 C17.6740625,38.5047768 17.1751786,39.0036607 16.5597768,39.0036607 L16.5597768,39.0036607 Z" id="路径" fill="#B9B9BB"></path>
                            <path d="M20.2044908,8.84808036 L6.88595562,8.84808036 C6.42163286,8.84808036 6.04522321,8.34919643 6.04522321,7.73379464 C6.04522321,7.11839286 6.42163286,6.61950893 6.88595562,6.61950893 L20.2044908,6.61950893 C20.6688136,6.61950893 21.0452232,7.11839286 21.0452232,7.73379464 C21.0452232,8.34919643 20.6688136,8.84808036 20.2044908,8.84808036 Z" id="路径" fill="#62A9FD"></path>
                            <path d="M16.1695008,29.8099107 L6.92094565,29.8099107 C6.43729846,29.8099107 6.04522321,29.3110268 6.04522321,28.695625 C6.04522321,28.0802232 6.43729846,27.5813393 6.92094565,27.5813393 L16.1695008,27.5813393 C16.653148,27.5813393 17.0452232,28.0802232 17.0452232,28.695625 C17.0452232,29.3110268 16.653148,29.8099107 16.1695008,29.8099107 Z" id="路径" fill="#62A9FD"></path>
                            <path d="M18.2256223,15.8353571 L6.86482412,15.8353571 C6.41217194,15.8353571 6.04522321,15.3364732 6.04522321,14.7210714 C6.04522321,14.1056696 6.41217194,13.6067857 6.86482412,13.6067857 L18.2256223,13.6067857 C18.6782745,13.6067857 19.0452232,14.1056696 19.0452232,14.7210714 C19.0452232,15.3364732 18.6782745,15.8353571 18.2256223,15.8353571 Z" id="路径" fill="#62A9FD"></path>
                            <path d="M16.1695008,22.8226339 L6.92094565,22.8226339 C6.43729846,22.8226339 6.04522321,22.32375 6.04522321,21.7083482 C6.04522321,21.0929464 6.43729846,20.5940625 6.92094565,20.5940625 L16.1695008,20.5940625 C16.653148,20.5940625 17.0452232,21.0929464 17.0452232,21.7083482 C17.0452232,22.32375 16.653148,22.8226339 16.1695008,22.8226339 Z" id="路径" fill="#62A9FD"></path>
                            <path d="M24.3937054,30.2547768 C24.2960268,30.2547768 24.1967857,30.241875 24.0979911,30.2147768 C23.5045536,30.0518304 23.155625,29.4386161 23.3185268,28.8451786 L24.8858482,23.1371429 C25.0487946,22.5437054 25.6618304,22.1947768 26.2554464,22.3576786 C26.8488839,22.520625 27.1978125,23.1338393 27.0349107,23.7272768 L25.4675893,29.4353125 C25.3317411,29.9299107 24.8829911,30.2547768 24.3937054,30.2547768 Z" id="路径" fill="#B9B9BB"></path>
                            <path d="M34.4683929,30.2547768 C33.9782589,30.2547768 33.5290625,29.9288839 33.3939732,29.4332143 L31.7290625,23.3240179 C31.5672768,22.7302679 31.9174107,22.1177679 32.5112054,21.9559375 C33.105,21.7941071 33.7174554,22.1443304 33.8792857,22.7380804 L35.5441964,28.8472768 C35.7059821,29.4410268 35.3558482,30.0535268 34.7620536,30.2153571 C34.666347,30.2414571 34.5675944,30.2547768 34.4683929,30.2547768 Z" id="路径" fill="#B9B9BB"></path>
                            <path d="M29.4310714,25.0291518 C25.3694196,25.0291518 22.065,21.7247321 22.065,17.6630804 C22.065,13.6014732 25.3694196,10.2970536 29.4310714,10.2970536 C33.4926786,10.2970536 36.7970982,13.6014732 36.7970982,17.6630804 C36.7970982,21.7247321 33.4927232,25.0291518 29.4310714,25.0291518 Z M29.4310714,12.525625 C26.5982589,12.525625 24.2935714,14.8302679 24.2935714,17.6630804 C24.2935714,20.4958929 26.5982589,22.8005804 29.4310714,22.8005804 C32.2638839,22.8005804 34.5685268,20.4958929 34.5685268,17.6630804 C34.5685268,14.8302679 32.2638839,12.525625 29.4310714,12.525625 L29.4310714,12.525625 Z" id="形状" fill="#B9B9BB"></path>
                            <path d="M35.3150893,39.3713839 L23.5470536,39.3713839 C21.3103571,39.3713839 19.4907589,37.5517411 19.4907589,35.3151339 L19.4907589,33.1086161 C19.4907589,30.8719196 21.3104018,29.0523214 23.5470536,29.0523214 L35.3150893,29.0523214 C37.5517857,29.0523214 39.3713839,30.8719643 39.3713839,33.1086161 L39.3713839,35.3151339 C39.3713839,37.5517857 37.5517857,39.3713839 35.3150893,39.3713839 L35.3150893,39.3713839 Z M23.5470536,31.2808929 C22.5392411,31.2808929 21.7193304,32.1008036 21.7193304,33.1086161 L21.7193304,35.3151339 C21.7193304,36.3229018 22.5392411,37.1428125 23.5470536,37.1428125 L35.3150893,37.1428125 C36.3229018,37.1428125 37.1428125,36.3229018 37.1428125,35.3151339 L37.1428125,33.1086161 C37.1428125,32.1008036 36.3229018,31.2808929 35.3150893,31.2808929 L23.5470536,31.2808929 L23.5470536,31.2808929 Z" id="形状" fill="#B9B9BB"></path>
                        </g>
                    </g>
                    <rect id="矩形" x="0" y="0" width="50" height="50"></rect>
                </g>
            </g>
        </g>
    </g>
</svg>