<?xml version="1.0" encoding="UTF-8"?>
<svg width="40px" height="40px" viewBox="0 0 40 40" version="1.1" xmlns="http://www.w3.org/2000/svg" xmlns:xlink="http://www.w3.org/1999/xlink">
    <!-- Generator: Sketch 60.1 (88133) - https://sketch.com -->
    <title>编组 35</title>
    <desc>Created with Sketch.</desc>
    <g id="页面-1" stroke="none" stroke-width="1" fill="none" fill-rule="evenodd">
        <g id="数码容器服务登录后" transform="translate(-791.000000, -1255.000000)" fill-rule="nonzero">
            <g id="编组-26" transform="translate(254.000000, 919.000000)">
                <g id="专业高效" transform="translate(3.000000, 331.000000)">
                    <g id="编组-33" transform="translate(529.000000, 0.000000)">
                        <g id="编组-35">
                            <rect id="矩形备份-4" fill="#000000" opacity="0" x="0" y="0" width="50" height="50"></rect>
                            <g id="灵活扩展" transform="translate(5.000000, 5.000000)">
                                <g id="编组-18">
                                    <path d="M32.6530612,17.8167443 L0,17.8167443 L0,21.1587938 L32.6530612,21.1587938 L32.6530612,17.8167443 Z M15.106143,15.4981975 L0,15.4981975 L0,12.156148 L13.9985642,12.156148 L21.5670188,6.24489796 L23.5565583,8.89764973 L15.106143,15.4981975 Z M21.5670188,33.7959184 L13.9985642,27.8846683 L0,27.8846683 L0,24.5426189 L15.106143,24.5426189 L23.5565583,31.1431666 L21.5670188,33.7959184 Z" id="形状" fill="#B9B9BB"></path>
                                    <path d="M29,3 L29,9 L23,9 L23,3 L29,3 M32,0 L21,0 L21,12 L32,12 L32,0 L32,0 Z M29,31 L29,37 L23,37 L23,31 L29,31 M32,28 L21,28 L21,40 L32,40 L32,28 L32,28 Z M38,17 L38,23 L32,23 L32,17 L38,17 M40,14 L29,14 L29,26 L40,26 L40,14 Z" id="形状" fill="#0074FF" opacity="0.6"></path>
                                </g>
                            </g>
                        </g>
                    </g>
                </g>
            </g>
        </g>
    </g>
</svg>