<?xml version="1.0" encoding="UTF-8"?>
<svg width="35px" height="40px" viewBox="0 0 35 40" version="1.1" xmlns="http://www.w3.org/2000/svg" xmlns:xlink="http://www.w3.org/1999/xlink">
    <!-- Generator: Sketch 60.1 (88133) - https://sketch.com -->
    <title>icon-生态18</title>
    <desc>Created with Sketch.</desc>
    <g id="页面-1" stroke="none" stroke-width="1" fill="none" fill-rule="evenodd">
        <g id="数码容器服务登录后" transform="translate(-261.000000, -924.000000)" fill-rule="nonzero">
            <g id="编组-26" transform="translate(254.000000, 919.000000)">
                <g id="icon-生态18">
                    <g id="编组-16">
                        <g id="编组-28">
                            <rect id="矩形" fill="#000000" opacity="0" x="0" y="0" width="50" height="50"></rect>
                            <g id="编组-19" transform="translate(7.000000, 5.000000)">
                                <path d="M17.4545455,0 C21.1794232,0 24.3259479,2.66052979 25.0987515,6.18154566 L25.1487941,6.42857142 L28.4972171,6.42857142 C31.947084,6.42857142 34.7833382,9.1970193 34.9050232,12.6274873 L34.9090909,12.8571428 L34.9090909,33.5714286 C34.9090909,37.0302795 32.1478338,39.8739198 28.7262761,39.9959217 L28.4972171,40 L6.41187383,40 C2.96200693,40 0.125752724,37.2315521 0.0040676955,33.8010841 L5.15143483e-13,33.5714286 L5.15143483e-13,12.8571428 C5.15143483e-13,9.39829192 2.7612571,6.55465163 6.18281482,6.43264971 L6.41187383,6.42857142 L9.76029686,6.42857142 C10.4371058,2.78571426 13.6430427,0 17.4545455,0 Z M28.4972171,9.28571434 L6.41187383,9.28571434 C4.51588969,9.28571434 2.95350975,10.7908429 2.85468397,12.6682076 L2.84972176,12.8571428 L2.84972176,33.5714286 C2.84972176,35.4723502 4.35094086,37.0387989 6.22342927,37.137882 L6.41187383,37.1428572 L28.4972171,37.1428572 C30.3932012,37.1428572 31.9555812,35.6377286 32.0544069,33.7603639 L32.0593692,33.5714286 L32.0593692,12.8571428 C32.0593692,10.8928572 30.4564008,9.28571434 28.4972171,9.28571434 Z M17.4545455,2.85714291 C15.2103896,2.85714291 13.2868275,4.35714291 12.6812616,6.42857142 L12.6812616,6.42857142 L22.2278293,6.42857142 C21.6222634,4.35714291 19.6987013,2.85714291 17.4545455,2.85714291 Z" id="形状结合" fill="#B9B9BB"></path>
                                <path d="M14.2486085,28.5714286 L11.4345084,28.5714286 L12.8237477,26.2857143 C13.2155844,25.6071429 13.0018552,24.7142858 12.3250464,24.3214286 C11.6482375,23.9285714 10.7576995,24.1428572 10.3658627,24.8214286 L8.33543598,28.2142857 C8.12170687,28.5357143 8.01484229,28.9285715 8.01484229,29.3214286 C8.01484229,30.5 8.97662336,31.4642857 10.1521336,31.4642857 L14.2486085,31.4642857 C15.032282,31.4642857 15.6734694,30.8214286 15.6734694,30.0357143 C15.6734694,29.25 15.032282,28.5714286 14.2486085,28.5714286 L14.2486085,28.5714286 Z" id="路径" fill="#0074FF" opacity="0.620220588"></path>
                                <path d="M20.8742115,21.3928572 C21.5510204,21 21.7647495,20.1071429 21.3729128,19.4285714 L19.3068645,16 C19.128757,15.7142858 18.8794063,15.4285715 18.5588126,15.25 C18.0601114,14.9642857 17.490167,14.8571429 16.9558442,15 C16.3858999,15.1428572 15.9228201,15.5 15.6378479,15.9642857 L13.5717996,19.3928572 C13.1799629,20.0714286 13.393692,20.9642857 14.070501,21.3571429 C14.7473099,21.75 15.6378479,21.5357143 16.0296846,20.8571429 L17.490167,18.4285714 L18.9506493,20.8571429 C19.2356215,21.2857143 19.6987013,21.5357143 20.1617811,21.5357143 C20.3755102,21.6071429 20.6248609,21.5357143 20.8742115,21.3928572 L20.8742115,21.3928572 Z" id="路径" fill="#0074FF" opacity="0.6"></path>
                                <path d="M24.5432282,24.7857143 C24.1513914,24.1071428 23.2608534,23.8928571 22.5840445,24.2857143 C21.9072356,24.6785715 21.6935065,25.5714286 22.0853432,26.25 L23.4745825,28.5357143 L20.6604824,28.5357143 C19.8768089,28.5357143 19.2356215,29.1785715 19.2356215,29.9642857 C19.2356215,30.75 19.8768089,31.3928572 20.6604824,31.3928572 L24.7569573,31.3928572 C25.1487941,31.3928572 25.5406308,31.2857143 25.8612245,31.0714286 C26.8586271,30.4642857 27.2148423,29.1428572 26.6092764,28.1428572 L24.5432282,24.7857143 L24.5432282,24.7857143 Z" id="路径" fill="#0074FF" opacity="0.620220588"></path>
                            </g>
                        </g>
                    </g>
                </g>
            </g>
        </g>
    </g>
</svg>