<?xml version="1.0" encoding="UTF-8"?>
<svg width="60px" height="60px" viewBox="0 0 60 60" version="1.1" xmlns="http://www.w3.org/2000/svg" xmlns:xlink="http://www.w3.org/1999/xlink">
    <!-- Generator: Sketch 60.1 (88133) - https://sketch.com -->
    <title>编组 40</title>
    <desc>Created with Sketch.</desc>
    <g id="页面-1" stroke="none" stroke-width="1" fill="none" fill-rule="evenodd">
        <g id="数码容器服务登录后" transform="translate(-609.000000, -3039.000000)" fill-rule="nonzero">
            <g id="编组-40" transform="translate(599.000000, 3029.000000)">
                <g id="编组-39" transform="translate(10.000000, 10.000000)">
                    <g id="编组-36">
                        <path d="M38.609233,26.7726229 C37.43494,23.2474228 34.0509547,20.901144 30.2881272,21.0032023 C26.9881348,21.0070256 23.9669567,22.8281616 22.459968,25.7219384 C19.9383569,26.1102349 16.3107762,27.7059879 16.0348104,31.8474705 C15.8630796,33.3345304 16.3318989,34.8244231 17.327215,35.9546916 C19.0862336,37.8671035 21.9712347,37.9563909 23.203601,37.9948052 L40.3166396,38 C40.5047271,38.0003993 40.6913443,37.9673383 40.8675179,37.9024031 C42.8148434,37.0907728 44.0576626,35.1848082 43.9979389,33.1016472 C44.0232182,29.2394473 40.9107034,27.4017877 38.609233,26.7726229 L38.609233,26.7726229 Z M40.0855744,35 L23.2039273,35 C22.3617687,34.9734788 20.3878258,34.9119496 19.5157427,33.9582469 C19.1025874,33.4353581 18.92615,32.7659224 19.0284022,32.1091881 C19.242148,28.9510424 23.3033191,28.7314468 23.4636285,28.72296 C24.1053471,28.696368 24.6701849,28.2948164 24.9021381,27.7003021 C25.7993288,25.5135644 27.9159627,24.0617951 30.2938771,24.0021846 C32.966495,23.9278767 35.3121705,25.7566797 35.8726437,28.351663 C36.0009188,29.0237765 36.5447569,29.5410227 37.2267237,29.639533 C37.6146724,29.6946971 41.0175063,30.269677 40.9961317,33.1530629 C41.0408791,33.8836384 40.6949626,34.5836692 40.0855744,34.9957566 L40.0855744,35 Z" id="形状" fill="#7B7B7C"></path>
                        <path d="M58.4090749,31.5866911 C59.2859648,31.5866911 59.9968245,30.8758314 59.9968245,29.9989415 C59.9968245,29.1220516 59.2859648,28.4111919 58.4090749,28.4111919 L54.6810387,28.4111919 L54.6810387,22.2972973 L58.4090749,22.2972973 C59.2859648,22.2972973 59.9968244,21.5864375 59.9968244,20.7095477 C59.9968244,19.8326578 59.2859648,19.1217981 58.4090749,19.121798 L54.6810387,19.121798 L54.6810387,9.8408722 C54.6781212,7.34253225 52.6532344,5.31811895 50.1548938,5.31578576 L40.899372,5.31578576 L40.899372,1.58774963 C40.899372,0.710859723 40.1885122,-7.10542736e-15 39.3116223,-7.10542736e-15 C38.4347324,-7.10542736e-15 37.7238727,0.710859723 37.7238727,1.58774963 L37.7238727,5.31578576 L31.6089196,5.31578576 L31.6089196,1.58774963 C31.6089196,0.710859723 30.8980599,-7.10542736e-15 30.02117,-7.10542736e-15 C29.1442801,-7.10542736e-15 28.4334204,0.710859723 28.4334204,1.58774963 L28.4334204,5.31578576 L22.3184673,5.31578576 L22.3184673,1.58774963 C22.3184673,0.710859723 21.6076076,-7.10542736e-15 20.7307177,-7.10542736e-15 C19.8538278,-7.10542736e-15 19.142968,0.710859723 19.142968,1.58774963 L19.142968,5.31578576 L9.8376967,5.31578576 C7.3397695,5.3187022 5.3155267,7.34294499 5.31261026,9.8408722 L5.31261026,19.121798 L1.58774963,19.121798 C0.710859723,19.121798 0,19.8326578 0,20.7095477 C0,21.5864376 0.710859723,22.2972973 1.58774963,22.2972973 L5.31578576,22.2972973 L5.31578576,28.4111919 L1.58774963,28.4111919 C0.71085976,28.4111919 0,29.1220516 0,29.9989415 C0,30.8758314 0.71085976,31.5866911 1.58774963,31.5866911 L5.31578576,31.5866911 L5.31578576,37.7027027 L1.58774963,37.7027027 C0.710859723,37.7027027 0,38.4135624 0,39.2904523 C0,40.1673422 0.710859723,40.878202 1.58774963,40.878202 L5.31578576,40.878202 L5.31578576,50.1580693 C5.31811895,52.6564099 7.34253225,54.6812967 9.8408722,54.6842142 L19.1461435,54.6842142 L19.1461435,58.4122504 C19.1461436,59.2891403 19.8570033,60 20.7338932,60 C21.610783,60 22.3216428,59.2891403 22.3216428,58.4122504 L22.3216428,54.6842142 L28.4365959,54.6842142 L28.4365959,58.4122504 C28.4365959,59.2891402 29.1474556,60 30.0243455,60 C30.9012354,60 31.6120951,59.2891402 31.6120951,58.4122504 L31.6120951,54.6842142 L37.7270482,54.6842142 L37.7270482,58.4122504 C37.7270482,59.2891403 38.4379079,60 39.3147978,60 C40.1916877,60 40.9025475,59.2891403 40.9025475,58.4122504 L40.9025475,54.6842142 L50.1580693,54.6842142 C52.6565811,54.6812978 54.6812978,52.6565811 54.6842142,50.1580693 L54.6842142,40.878202 L58.4122504,40.878202 C59.2891403,40.878202 60,40.1673422 60,39.2904523 C60,38.4135624 59.2891403,37.7027027 58.4122504,37.7027027 L54.6842142,37.7027027 L54.6842142,31.5866911 L58.4090749,31.5866911 Z M51.5055395,50.1580693 C51.5043738,50.9035269 50.9003514,51.5075493 50.1548938,51.508715 L9.8376967,51.508715 C9.09241101,51.507548 8.48869223,50.9033557 8.48810952,50.1580693 L8.48810952,9.8408722 C8.48869324,9.0957577 9.0925822,8.49186874 9.8376967,8.49128502 L50.1548938,8.49128502 C50.9001802,8.49186773 51.5043725,9.09558651 51.5055395,9.8408722 L51.5055395,50.1580693 L51.5055395,50.1580693 Z" id="形状" fill-opacity="0.25" fill="#000000"></path>
                    </g>
                </g>
                <rect id="矩形备份-8" fill="#000000" opacity="0" x="0" y="0" width="80" height="80"></rect>
            </g>
        </g>
    </g>
</svg>