<?xml version="1.0" encoding="UTF-8"?>
<svg width="59px" height="42px" viewBox="0 0 59 42" version="1.1" xmlns="http://www.w3.org/2000/svg" xmlns:xlink="http://www.w3.org/1999/xlink">
    <!-- Generator: Sketch 60.1 (88133) - https://sketch.com -->
    <title>编组 8</title>
    <desc>Created with Sketch.</desc>
    <g id="页面-1" stroke="none" stroke-width="1" fill="none" fill-rule="evenodd">
        <g id="数码容器服务登录后" transform="translate(-261.000000, -148.000000)" fill-rule="nonzero">
            <g id="编组-8" transform="translate(252.000000, 131.000000)">
                <g id="编组-21">
                    <g id="编组-20">
                        <g id="编组-2">
                            <rect id="矩形" fill="#000000" opacity="0" x="0" y="0" width="78" height="78"></rect>
                            <g id="编组" transform="translate(9.750000, 17.550000)" fill="#FFFFFF" stroke="#FFFFFF">
                                <path d="M31.2730354,0 C39.0492877,0 45.3737937,6.32450597 45.3737937,14.1007583 C45.3737937,14.7056526 45.3334674,15.323989 45.2460937,15.9490464 C51.7722312,16.2044462 57.0146484,21.6014476 57.0146484,28.2015165 C57.0146484,28.5241268 56.9944853,28.833295 56.9743222,29.115579 C57.0012063,29.4247472 57.0146484,29.7339154 57.0146484,30.0363626 C57.0146484,35.7895795 52.3367992,40.4607077 46.5903033,40.4607077 L12.8708065,40.4607077 C10.4646714,40.4607077 8.11902574,39.6138557 6.2572955,38.0747358 C2.33892463,35.4468061 4.26325641e-14,31.071404 4.26325641e-14,26.3599494 C4.26325641e-14,18.5836972 6.32450597,12.2591912 14.1007583,12.2591912 C15.1559628,12.2591912 16.2044462,12.38017 17.2462086,12.6221278 C17.9855239,5.53814338 23.9941406,0 31.2730354,0 Z M31.2461512,2.4464614 C24.8275506,2.4464614 19.5985754,7.67543658 19.5985754,14.0940372 C19.6052964,14.1209214 19.6052964,14.1746898 19.6052964,14.2217371 L19.6187385,15.9692096 L17.9720818,15.3844784 C16.7152459,14.9408892 15.4046415,14.7123736 14.0940372,14.7123736 C7.66871553,14.7123736 2.4464614,19.9413488 2.4464614,26.3599494 C2.4464614,30.2715993 4.39556526,33.9009651 7.66199449,36.0718635 L7.76953125,36.1525161 C9.20111443,37.3488626 11.0090763,38.0142463 12.8640855,38.0142463 L46.5835823,38.0142463 C50.9791475,38.0142463 54.5547449,34.4386489 54.5547449,30.0430836 C54.5547449,29.7876838 54.5413028,29.5188419 54.5144187,29.25 L54.5009766,29.1357422 L54.5076976,29.0214844 C54.5278608,28.7526425 54.5480239,28.4770795 54.5480239,28.2015165 C54.5480239,22.7910731 50.1457376,18.3887868 44.7352941,18.3887868 C44.4731733,18.3887868 44.1841682,18.4022289 43.8346737,18.4358341 L42.1208065,18.5904182 L42.5375115,16.9168773 C42.7727482,15.9624885 42.893727,15.0080997 42.893727,14.0940372 C42.893727,7.66871553 37.6647518,2.4464614 31.2461512,2.4464614 Z" id="形状结合" stroke-width="0.8"></path>
                                <path d="M26.9715648,27.5899012 C26.292739,27.5899012 25.7483341,27.0387753 25.7483341,26.3666705 C25.7483341,19.9413488 20.5193589,14.7190947 14.1007583,14.7190947 C13.4219324,14.7190947 12.8775276,14.1679687 12.8775276,13.495864 C12.8775276,12.8237592 13.4286535,12.2726333 14.1007583,12.2726333 C21.8770106,12.2726333 28.2015165,18.5971392 28.2015165,26.3733915 C28.2015165,27.0387753 27.6503906,27.5899012 26.9715648,27.5899012 Z" id="路径" stroke-width="0.6"></path>
                                <path d="M38.4511144,21.1444164 C38.1016199,21.1444164 37.7588465,20.9965533 37.5168888,20.7142693 C37.0800207,20.1967486 37.1405101,19.4238281 37.6580308,18.98696 C39.9767923,17.0244141 42.9340533,15.9356043 45.978688,15.9356043 C46.6575138,15.9356043 47.2019187,16.4867302 47.2019187,17.158835 C47.2019187,17.8309398 46.6507927,18.3820657 45.978688,18.3820657 C43.5120634,18.3820657 41.1193704,19.2558019 39.2441981,20.8486903 C39.0156824,21.0503217 38.7333984,21.1444164 38.4511144,21.1444164 Z" id="路径" stroke-width="0.6"></path>
                            </g>
                        </g>
                    </g>
                </g>
            </g>
        </g>
    </g>
</svg>