<?xml version="1.0" encoding="UTF-8"?>
<svg width="54px" height="56px" viewBox="0 0 54 56" version="1.1" xmlns="http://www.w3.org/2000/svg" xmlns:xlink="http://www.w3.org/1999/xlink">
    <!-- Generator: Sketch 60.1 (88133) - https://sketch.com -->
    <title>编组 10</title>
    <desc>Created with Sketch.</desc>
    <g id="页面-1" stroke="none" stroke-width="1" fill="none" fill-rule="evenodd">
        <g id="数码容器服务登录后" transform="translate(-1079.000000, -3042.000000)" fill-rule="nonzero">
            <g id="编组-10" transform="translate(1066.000000, 3030.000000)">
                <rect id="矩形" fill="#000000" opacity="0" x="0" y="0" width="80" height="80"></rect>
                <g id="编组-12" transform="translate(13.000000, 12.000000)">
                    <g id="编组-14">
                        <path d="M34.7091346,50.8990385 L37.0168269,50.8990385 L37.0168269,48.5913462 L34.7091346,48.5913462 L34.7091346,50.8990385 Z M39.3317308,50.8990385 L41.6466346,50.8990385 L41.6466346,48.5913462 L39.3317308,48.5913462 L39.3317308,50.8990385 Z M43.9615385,50.8990385 L46.2764423,50.8990385 L46.2764423,48.5913462 L43.9615385,48.5913462 L43.9615385,50.8990385 Z M2.31490385,46.2764423 L50.90625,46.2764423 L50.90625,53.2211538 L2.31490385,53.2211538 L2.31490385,46.2764423 Z M2,55.5288462 L51.2211538,55.5288462 C52.3257233,55.5288462 53.2211538,54.6334157 53.2211538,53.5288462 L53.2211538,43.9615385 L53.2211538,43.9615385 L2.09610107e-13,43.9615385 L2.09610107e-13,53.5288462 C2.10726433e-13,54.6334157 0.8954305,55.5288462 2,55.5288462 Z M4.24597685,3.58170247 L2.38031816e-13,43.9615385 L2.38031816e-13,43.9615385 L2.40865385,43.9615385 L6.54954596,5.8824748 C6.7702762,3.85267045 8.48433222,2.31490385 10.5261029,2.31490385 L42.6878394,2.31490385 C44.7296101,2.31490385 46.4436661,3.85267045 46.6643963,5.8824748 L50.8052885,43.9615385 L50.8052885,43.9615385 L53.2139423,43.9615385 L48.9679655,3.58170247 C48.7538803,1.54572293 47.0371014,-2.17175451e-13 44.9898972,-2.13162821e-13 L8.22404512,-2.13162821e-13 C6.1768409,-2.11010399e-13 4.46006197,1.54572293 4.24597685,3.58170247 Z" id="形状" fill-opacity="0.25" fill="#000000"></path>
                        <path d="M11.3870192,27.5552885 C11.3870192,24.0216346 14.25,21.1586538 17.7836538,21.1586538 L17.8774038,21.1586538 C18.2379808,18.9591346 19.5216346,17.3725962 19.8677885,16.9759615 C21.5264423,14.9711538 24.0360577,13.6947115 26.8413462,13.6947115 C30.9447115,13.6947115 34.4134615,16.4278846 35.5240385,20.1706731 C35.9567308,20.8774038 35.9567308,24.0793269 35.9567308,24.3389423 L35.9567308,24.375 C36.1153846,24.3605769 36.2668269,24.3533654 36.4326923,24.3533654 C39.0793269,24.3533654 41.2283654,27.1298077 41.2283654,29.1490385 C41.2283654,31.1682692 39.28125,31.8173077 38.5673077,31.8173077 C38.4663462,31.8173077 38.2788462,31.8173077 38.0120192,31.8028846 L38.0120192,31.8173077 L13.5144231,31.8173077 C13.0745192,31.8173077 11.3870192,31.0745192 11.3870192,27.5552885 M16.2331731,19.1682692 C12.2596154,19.8966346 9.25240385,23.3725962 9.25240385,27.5552885 C9.25240385,32.2644231 11.6971154,33.9447115 12.4471154,33.9447115 L38.0120192,33.9447115 L38.0120192,33.9663462 C39.375,33.9663462 43.3557692,32.9711538 43.3557692,29.1490385 C43.3557692,25.875 41.0841346,23.1274038 38.0192308,22.40625 C37.8389423,16.3846154 32.8990385,11.5600962 26.8341346,11.5600962 C21.9158654,11.5673077 17.7331731,14.7475962 16.2331731,19.1682692" id="形状" fill="#7B7B7C"></path>
                        <path d="M18.8942308,21.1586538 L20.1129808,21.1586538 C21.09375,18.4399038 23.6033654,16.4423077 26.6105769,16.2115385 L26.6105769,15.0504808 C22.9615385,15.2956731 19.9254808,17.7908654 18.8942308,21.1586538" id="路径" fill="#7B7B7C"></path>
                    </g>
                </g>
            </g>
        </g>
    </g>
</svg>