<svg width="192" height="60" xmlns="http://www.w3.org/2000/svg" version="1.1" xml:space="preserve">
 <metadata/>

 <g>
  <title>Layer 1</title>
  <text transform="matrix(1.00281, 0, 0, 2.3482, -0.455022, -41.6432)" stroke-opacity="0" stroke="#000000" font-weight="bold" xml:space="preserve" text-anchor="start" font-family="Noto Sans JP" font-size="24" stroke-width="0" id="svg_19" y="39" x="67.59622" fill="#ffffff">讯飞数码云</text>
  <path id="svg_26" d="m15.5763,51.91532c-7.25049,0 -13.13099,-6.59211 -13.13099,-14.72l0,0c0.00438,-6.52341 3.79486,-12.01888 9.03193,-13.94475l0,0c0.18165,-5.54453 4.23912,-9.97035 9.22671,-9.97525l0,0c1.5976,0 3.09672,0.46613 4.39888,1.26837l0,0c2.77064,-5.16427 7.81294,-8.62592 13.58619,-8.62837l0,0c8.638,0.00491 15.66308,7.74027 15.86223,17.36715l0,0c5.16923,1.97248 8.88968,7.44341 8.89406,13.91285l0,0c0,8.12789 -5.88049,14.72 -13.13099,14.72l0,0l-34.73803,0l0,0zm36.33125,-24.34933c-1.11832,-0.23307 -1.89086,-1.37877 -1.78363,-2.64715l0,0c0.0372,-0.41952 0.05909,-0.82432 0.05909,-1.21931l0,0c-0.01532,-7.11221 -5.14735,-12.86773 -11.4918,-12.87755l0,0c-4.92193,-0.00491 -9.10853,3.47883 -10.74771,8.36587l0,0c-0.267,0.79243 -0.88853,1.38368 -1.637,1.5456l0,0c-0.74409,0.16192 -1.51882,-0.12757 -2.02874,-0.75808l0,0c-0.91042,-1.11136 -2.15786,-1.79339 -3.57382,-1.79339l0,0c-2.68091,0.00491 -4.84971,2.43616 -4.85847,5.44149l0,0c0,0.33365 0.0372,0.67712 0.09848,1.04021l0,0c0.10724,0.65259 -0.01751,1.3248 -0.35673,1.86944l0,0c-0.33922,0.54709 -0.85789,0.91019 -1.43784,1.01568l0,0c-4.15815,0.76789 -7.33584,4.78155 -7.33147,9.64405l0,0c0.00875,5.41941 3.92179,9.80107 8.75618,9.81579l0,0l34.74021,0c4.83439,-0.01472 8.74086,-4.39637 8.7518,-9.81579l0,0c0.00875,-4.80117 -3.08578,-8.78293 -7.15858,-9.62688l0,0" stroke-width="0" stroke="#ffffff" fill="#ffffff"/>
 </g>
</svg>